<svg height="512" viewBox="0 0 512 512" width="512" xmlns="http://www.w3.org/2000/svg"><g><g fill="#57a4ff"><path d="m416 336a40 40 0 1 0 40 40 40 40 0 0 0 -40-40zm0 56a16 16 0 1 1 16-16 16 16 0 0 1 -16 16z"/><path d="m95 336a40 40 0 1 0 40 40 40 40 0 0 0 -40-40zm1 56a16 16 0 1 1 16-16 16 16 0 0 1 -16 16z"/><path d="m184 224h64v128h-64z"/><path d="m16 224h56v64h-56z"/><path d="m440 224h56v64h-56z"/><path d="m104 224h48v64h-48z"/><path d="m280 224h48v64h-48z"/><path d="m360 224h48v64h-48z"/></g><g fill="#004fac"><path d="m476 176h-440a28.031 28.031 0 0 0 -28 28v152a28.031 28.031 0 0 0 28 28h11.68a47.99 47.99 0 0 0 94.64 0h226.36a47.99 47.99 0 0 0 94.64 0h12.68a28.031 28.031 0 0 0 28-28v-152a28.031 28.031 0 0 0 -28-28zm-452 56h40v48h-40zm71 176a32 32 0 1 1 32-32 32.036 32.036 0 0 1 -32 32zm161-40h-80v-8h80zm-64-24v-112h48v112zm224 64a32 32 0 1 1 32-32 32.036 32.036 0 0 1 -32 32zm72-128h-40v-48h40zm0-64h-48a8 8 0 0 0 -8 8v64a8 8 0 0 0 8 8h48v60a12.01 12.01 0 0 1 -12 12h-12.68a47.99 47.99 0 0 0 -94.64 0h-96.68v-16a8 8 0 0 0 -8-8h-8v-120a8 8 0 0 0 -8-8h-64a8 8 0 0 0 -8 8v120h-8a8 8 0 0 0 -8 8v16h-17.68a47.99 47.99 0 0 0 -94.64 0h-11.68a12.01 12.01 0 0 1 -12-12v-60h48a8 8 0 0 0 8-8v-64a8 8 0 0 0 -8-8h-48v-12a12.01 12.01 0 0 1 12-12h440a12.01 12.01 0 0 1 12 12z"/><path d="m416 352a24 24 0 1 0 24 24 24.027 24.027 0 0 0 -24-24zm0 32a8 8 0 1 1 8-8 8.009 8.009 0 0 1 -8 8z"/><path d="m96 352a24 24 0 1 0 24 24 24.027 24.027 0 0 0 -24-24zm0 32a8 8 0 1 1 8-8 8.009 8.009 0 0 1 -8 8z"/><path d="m152 216h-48a8 8 0 0 0 -8 8v64a8 8 0 0 0 8 8h48a8 8 0 0 0 8-8v-64a8 8 0 0 0 -8-8zm-8 64h-32v-48h32z"/><path d="m328 216h-48a8 8 0 0 0 -8 8v64a8 8 0 0 0 8 8h48a8 8 0 0 0 8-8v-64a8 8 0 0 0 -8-8zm-8 64h-32v-48h32z"/><path d="m408 216h-48a8 8 0 0 0 -8 8v64a8 8 0 0 0 8 8h48a8 8 0 0 0 8-8v-64a8 8 0 0 0 -8-8zm-8 64h-32v-48h32z"/></g></g></svg>